<svg width="185" height="48" viewBox="0 0 185 48" fill="none" xmlns="http://www.w3.org/2000/svg">
<path d="M138.94 41.28H184.06V6.72H138.94V41.28ZM140.82 39.36V32.0774L151.16 21.5174L160.56 31.1174L176.54 14.7974L182.18 20.5574V39.36H140.82ZM182.18 8.64V17.8426L176.54 12.0826L160.56 28.4026L151.16 18.8026L140.82 29.3626V8.64H182.18Z" fill="black"/>
<path d="M160.56 21.12C163.152 21.12 165.26 18.9667 165.26 16.32C165.26 13.6733 163.152 11.52 160.56 11.52C157.968 11.52 155.86 13.6733 155.86 16.32C155.86 18.9667 157.968 21.12 160.56 21.12ZM160.56 13.44C162.115 13.44 163.38 14.7322 163.38 16.32C163.38 17.9078 162.115 19.2 160.56 19.2C159.005 19.2 157.74 17.9078 157.74 16.32C157.74 14.7322 159.005 13.44 160.56 13.44Z" fill="black"/>
<path d="M11.1149 31.28H3.81891L2.47491 35H0.170906L6.21891 18.368H8.73891L14.7629 35H12.4589L11.1149 31.28ZM10.4909 29.504L7.46691 21.056L4.44291 29.504H10.4909ZM22.6068 18.272C24.4308 18.272 26.0068 18.616 27.3348 19.304C28.6788 19.976 29.7028 20.944 30.4068 22.208C31.1268 23.472 31.4868 24.96 31.4868 26.672C31.4868 28.384 31.1268 29.872 30.4068 31.136C29.7028 32.384 28.6788 33.344 27.3348 34.016C26.0068 34.672 24.4308 35 22.6068 35H17.3988V18.272H22.6068ZM22.6068 33.2C24.7668 33.2 26.4148 32.632 27.5508 31.496C28.6868 30.344 29.2548 28.736 29.2548 26.672C29.2548 24.592 28.6788 22.968 27.5268 21.8C26.3908 20.632 24.7508 20.048 22.6068 20.048H19.5828V33.2H22.6068ZM39.5755 18.272C41.3995 18.272 42.9755 18.616 44.3035 19.304C45.6475 19.976 46.6715 20.944 47.3755 22.208C48.0955 23.472 48.4555 24.96 48.4555 26.672C48.4555 28.384 48.0955 29.872 47.3755 31.136C46.6715 32.384 45.6475 33.344 44.3035 34.016C42.9755 34.672 41.3995 35 39.5755 35H34.3675V18.272H39.5755ZM39.5755 33.2C41.7355 33.2 43.3835 32.632 44.5195 31.496C45.6555 30.344 46.2235 28.736 46.2235 26.672C46.2235 24.592 45.6475 22.968 44.4955 21.8C43.3595 20.632 41.7195 20.048 39.5755 20.048H36.5515V33.2H39.5755ZM59.9187 18.272V35H57.7347V18.272H59.9187ZM80.609 18.392V35H78.425V22.616L72.905 35H71.369L65.825 22.592V35H63.641V18.392H65.993L72.137 32.12L78.281 18.392H80.609ZM94.2008 31.28H86.9048L85.5608 35H83.2568L89.3048 18.368H91.8248L97.8488 35H95.5448L94.2008 31.28ZM93.5768 29.504L90.5528 21.056L87.5288 29.504H93.5768ZM113.157 23.12C112.693 22.144 112.021 21.392 111.141 20.864C110.261 20.32 109.237 20.048 108.069 20.048C106.901 20.048 105.845 20.32 104.901 20.864C103.973 21.392 103.237 22.16 102.693 23.168C102.165 24.16 101.901 25.312 101.901 26.624C101.901 27.936 102.165 29.088 102.693 30.08C103.237 31.072 103.973 31.84 104.901 32.384C105.845 32.912 106.901 33.176 108.069 33.176C109.701 33.176 111.045 32.688 112.101 31.712C113.157 30.736 113.773 29.416 113.949 27.752H107.277V25.976H116.277V27.656C116.149 29.032 115.717 30.296 114.981 31.448C114.245 32.584 113.277 33.488 112.077 34.16C110.877 34.816 109.541 35.144 108.069 35.144C106.517 35.144 105.101 34.784 103.821 34.064C102.541 33.328 101.525 32.312 100.773 31.016C100.037 29.72 99.6687 28.256 99.6687 26.624C99.6687 24.992 100.037 23.528 100.773 22.232C101.525 20.92 102.541 19.904 103.821 19.184C105.101 18.448 106.517 18.08 108.069 18.08C109.845 18.08 111.413 18.52 112.773 19.4C114.149 20.28 115.149 21.52 115.773 23.12H113.157ZM121.348 20.048V25.64H127.444V27.44H121.348V33.2H128.164V35H119.164V18.248H128.164V20.048H121.348Z" fill="black"/>
</svg>
