<svg width="1231" height="801" viewBox="0 0 1231 801" fill="none" xmlns="http://www.w3.org/2000/svg">
<rect width="1231" height="801" fill="#E5E5E5"/>
<rect width="1231" height="801" fill="#FFC774"/>
<g clip-path="url(#clip0)">
<path d="M681.742 215.345L570.955 290.058H733.504L681.742 215.345Z" fill="#F2F2F2"/>
<path d="M742.153 298.039H560.828L505.549 335.318H767.98L742.153 298.039Z" fill="#F2F2F2"/>
<path d="M498.968 342.671L323.759 460.827L448.564 640.971L811.607 396.143L774.562 342.671H498.968Z" fill="#F2F2F2"/>
<path d="M517 691C719.136 691 883 683.016 883 673.168C883 663.32 719.136 655.336 517 655.336C314.864 655.336 151 663.32 151 673.168C151 683.016 314.864 691 517 691Z" fill="#F2F2F2"/>
<path d="M134.281 653.553C192.427 653.553 239.563 647.565 239.563 640.179C239.563 632.792 192.427 626.805 134.281 626.805C76.1361 626.805 29 632.792 29 640.179C29 647.565 76.1361 653.553 134.281 653.553Z" fill="#F2F2F2"/>
<path d="M318.353 424.355C325.238 424.355 330.819 421.167 330.819 417.235C330.819 413.303 325.238 410.115 318.353 410.115C311.469 410.115 305.888 413.303 305.888 417.235C305.888 421.167 311.469 424.355 318.353 424.355Z" fill="#3F3D56"/>
<path d="M645.901 469.342H365.754L372.643 444.875L378.6 423.708L388.717 387.783H623.594L633.421 423.708L640.147 448.305L645.901 469.342Z" fill="#3F3D56"/>
<path opacity="0.1" d="M640.147 448.305H372.643V444.875L378.6 423.708H633.421L640.147 448.305Z" fill="black"/>
<path d="M336.559 414.97H300.147V442.803H336.559V414.97Z" fill="#E88B00"/>
<path d="M738.407 428.563H273.904V673.24H738.407V428.563Z" fill="#3F3D56"/>
<path d="M738.407 520.478H273.904V581.324H738.407V520.478Z" fill="#F2F2F2"/>
<path d="M506.156 664.501C569.747 664.501 621.297 613.641 621.297 550.901C621.297 488.162 569.747 437.301 506.156 437.301C442.564 437.301 391.014 488.162 391.014 550.901C391.014 613.641 442.564 664.501 506.156 664.501Z" fill="#2F2E41"/>
<path d="M506.156 656.41C565.217 656.41 613.096 609.172 613.096 550.901C613.096 492.63 565.217 445.392 506.156 445.392C447.094 445.392 399.215 492.63 399.215 550.901C399.215 609.172 447.094 656.41 506.156 656.41Z" fill="#EFA638"/>
<path d="M506.156 631.166C551.086 631.166 587.509 595.23 587.509 550.901C587.509 506.572 551.086 470.637 506.156 470.637C461.225 470.637 424.802 506.572 424.802 550.901C424.802 595.23 461.225 631.166 506.156 631.166Z" fill="#2F2E41"/>
<path opacity="0.2" d="M666.895 453.16C671.243 453.16 674.768 449.682 674.768 445.392C674.768 441.102 671.243 437.625 666.895 437.625C662.547 437.625 659.022 441.102 659.022 445.392C659.022 449.682 662.547 453.16 666.895 453.16Z" fill="#E88B00"/>
<path opacity="0.5" d="M690.514 453.16C694.862 453.16 698.387 449.682 698.387 445.392C698.387 441.102 694.862 437.625 690.514 437.625C686.166 437.625 682.641 441.102 682.641 445.392C682.641 449.682 686.166 453.16 690.514 453.16Z" fill="#FFB950"/>
<path d="M714.132 453.16C718.481 453.16 722.005 449.682 722.005 445.392C722.005 441.102 718.481 437.625 714.132 437.625C709.784 437.625 706.26 441.102 706.26 445.392C706.26 449.682 709.784 453.16 714.132 453.16Z" fill="#E88B00"/>
<path d="M533.383 393.609H478.272V418.206H533.383V393.609Z" fill="#2F2E41"/>
<path d="M76.7146 320.34L81.5391 315.58C81.5391 315.58 93.8681 294.425 81.5391 296.012C69.21 297.598 69.21 308.176 69.21 308.176V320.34L76.7146 320.34Z" fill="#9F616A"/>
<path d="M268.083 371.64L272.908 370.053C272.908 370.053 285.773 351.014 287.381 359.476C288.989 367.938 280.948 379.573 280.948 379.573H268.083L268.083 371.64Z" fill="#9F616A"/>
<path d="M338.949 160.921L129.43 109L78.2762 310.625L287.795 362.546L338.949 160.921Z" fill="#F2F2F2"/>
<path opacity="0.2" d="M319.722 169.39L139.767 124.872L108.148 249.287L288.103 293.805L319.722 169.39Z" fill="#E88B00"/>
<path d="M152.976 317.96C164.887 317.96 174.543 310.027 174.543 300.243C174.543 290.458 164.887 282.525 152.976 282.525C141.065 282.525 131.409 290.458 131.409 300.243C131.409 310.027 141.065 317.96 152.976 317.96Z" fill="#2F2E41"/>
<path d="M119.598 443.566C119.598 443.566 111.558 465.25 109.95 520.252C108.341 575.254 106.733 609.631 113.702 614.39C120.67 619.15 130.855 618.093 131.391 617.035C131.927 615.977 134.608 547.224 134.608 547.224L148.545 495.924L164.09 530.829V591.649C164.09 591.649 175.883 602.227 180.708 592.178C185.532 582.13 188.748 530.829 188.748 530.829C188.748 530.829 194.645 443.566 184.46 432.989C174.275 422.411 119.598 443.566 119.598 443.566Z" fill="#102D77"/>
<path d="M121.206 614.39C121.206 614.39 115.31 609.102 110.486 615.977C105.661 622.852 89.5798 637.661 93.3321 640.305C97.0844 642.949 116.382 644.007 118.526 641.363C118.526 641.363 134.072 634.487 134.072 632.901C134.072 631.314 131.927 613.862 129.783 614.39C127.639 614.919 121.743 619.15 121.206 614.39Z" fill="#2F2E41"/>
<path d="M171.595 588.476H181.983C181.983 588.476 179.099 595.88 181.78 595.88C184.46 595.88 209.118 615.977 199.469 618.093C189.82 620.208 162.482 610.689 161.41 607.515C160.338 604.342 165.162 590.063 165.162 590.063L171.595 593.236V588.476Z" fill="#2F2E41"/>
<path d="M141.576 313.993C141.576 313.993 140.504 331.975 135.144 333.561C129.783 335.148 152.297 351.543 152.297 351.543L167.842 331.446C167.842 331.446 161.946 321.397 164.09 313.993C166.234 306.589 141.576 313.993 141.576 313.993Z" fill="#9F616A"/>
<path opacity="0.1" d="M141.576 313.993C141.576 313.993 140.504 331.975 135.144 333.561C129.783 335.148 152.297 351.543 152.297 351.543L167.842 331.446C167.842 331.446 161.946 321.397 164.09 313.993C166.234 306.589 141.576 313.993 141.576 313.993Z" fill="black"/>
<path d="M151.225 334.619C151.225 334.619 132.463 327.744 129.783 329.33C127.103 330.917 101.909 342.023 101.373 344.139C100.837 346.254 104.589 376.929 104.589 376.929C104.589 376.929 111.022 379.573 111.558 390.679C112.094 401.785 126.567 419.238 121.743 430.873C116.918 442.508 112.094 446.739 121.206 448.326C130.319 449.912 171.595 447.268 173.739 443.566C175.883 439.864 188.212 434.575 191.965 435.633C195.717 436.691 189.82 380.631 189.82 380.631L193.037 372.698L203.758 343.61C203.758 343.61 187.676 325.628 172.131 327.215C172.131 327.215 154.977 329.33 151.225 334.619Z" fill="#8F8F8F"/>
<path d="M109.413 345.725L101.373 344.139C101.373 344.139 93.3321 349.427 90.6518 349.427C87.9716 349.427 87.9716 351.543 87.9716 351.543C87.9716 351.543 77.7867 336.206 79.9309 318.753C79.9309 318.753 67.6019 312.935 67.0658 317.166C66.5297 321.397 62.2414 369.524 71.3542 372.698C80.467 375.871 111.558 376.4 111.558 376.4L109.413 345.725Z" fill="#8F8F8F"/>
<path d="M196.253 342.552H203.758L223.591 362.12C223.591 362.12 228.416 361.062 230.024 364.236C231.632 367.409 242.353 366.88 242.353 366.88L270.763 369.524C270.763 369.524 274.516 381.688 271.835 383.804C269.155 385.919 221.983 386.448 221.983 386.448C221.983 386.448 217.695 384.333 215.015 386.448C212.334 388.564 193.037 375.342 190.893 371.64C188.748 367.938 196.253 342.552 196.253 342.552Z" fill="#8F8F8F"/>
<path d="M153.905 322.455C164.859 322.455 173.739 313.694 173.739 302.887C173.739 292.08 164.859 283.319 153.905 283.319C142.952 283.319 134.072 292.08 134.072 302.887C134.072 313.694 142.952 322.455 153.905 322.455Z" fill="#9F616A"/>
<path d="M141.608 291.506C141.608 291.506 138.216 282.804 143.135 279.959L144.492 283.808C144.492 283.808 156.874 276.445 160.096 278.118L157.043 282.134C157.043 282.134 171.461 282.134 172.478 287.657L167.39 287.824C167.39 287.824 172.818 291.338 172.987 297.028L162.132 297.698L167.39 300.71C167.39 300.71 147.714 303.387 142.965 295.689L141.608 291.506Z" fill="#2F2E41"/>
<path d="M134.34 295.218C134.34 295.218 140.088 300.794 147.526 298.042C154.965 295.29 147.526 285.198 147.526 285.198L142.567 282.752L134.34 295.218Z" fill="#2F2E41"/>
<path d="M235.617 222.15L218.009 231.26L227.242 248.631L244.85 239.522L235.617 222.15Z" fill="#E88B00"/>
<path d="M191.69 215.752L174.473 205.945L164.532 222.932L181.75 232.739L191.69 215.752Z" fill="#E88B00"/>
<path d="M533.267 374.481C538.757 374.481 543.207 370.09 543.207 364.673C543.207 359.257 538.757 354.866 533.267 354.866C527.777 354.866 523.326 359.257 523.326 364.673C523.326 370.09 527.777 374.481 533.267 374.481Z" stroke="#3F3D56" stroke-width="2" stroke-miterlimit="10"/>
<path d="M502.541 337.034C508.031 337.034 512.481 332.643 512.481 327.226C512.481 321.809 508.031 317.418 502.541 317.418C497.051 317.418 492.6 321.809 492.6 327.226C492.6 332.643 497.051 337.034 502.541 337.034Z" stroke="#3F3D56" stroke-width="2" stroke-miterlimit="10"/>
<path d="M553.148 308.502C558.638 308.502 563.089 304.111 563.089 298.695C563.089 293.278 558.638 288.887 553.148 288.887C547.658 288.887 543.207 293.278 543.207 298.695C543.207 304.111 547.658 308.502 553.148 308.502Z" stroke="#3F3D56" stroke-width="2" stroke-miterlimit="10"/>
<path d="M216.97 200.618C222.46 200.618 226.911 196.227 226.911 190.811C226.911 185.394 222.46 181.003 216.97 181.003C211.48 181.003 207.03 185.394 207.03 190.811C207.03 196.227 211.48 200.618 216.97 200.618Z" fill="#E88B00"/>
</g>
<mask id="mask0" mask-type="alpha" maskUnits="userSpaceOnUse" x="650" y="0" width="581" height="801">
<path d="M706.225 0H1150.7H1231V800.5H650.5L738 755L813.5 710.5C813.5 710.5 953.409 688.873 915.5 666C878.241 643.519 783.813 631.5 783.813 631.5V459C783.813 459 849.5 406.5 831.5 316C813.5 225.5 650.5 199.5 650.5 199.5V0H706.225Z" fill="#C4C4C4"/>
</mask>
<g mask="url(#mask0)">
<rect x="656.905" y="-56.9982" width="639.955" height="848.48" fill="url(#paint0_diamond)"/>
</g>
<defs>
<radialGradient id="paint0_diamond" cx="0" cy="0" r="1" gradientUnits="userSpaceOnUse" gradientTransform="translate(917.037 367.242) rotate(50.4744) scale(410.632 1343.86)">
<stop stop-color="#E8A700" stop-opacity="0.03"/>
<stop offset="0.846223" stop-color="#E88B00" stop-opacity="0.34"/>
</radialGradient>
<clipPath id="clip0">
<rect x="29" y="109" width="854" height="582" fill="white"/>
</clipPath>
</defs>
</svg>
