<svg width="375" height="98" viewBox="0 0 375 98" fill="none" xmlns="http://www.w3.org/2000/svg">
<path d="M49 98C76.062 98 98 76.062 98 49C98 21.938 76.062 0 49 0C21.938 0 0 21.938 0 49C0 76.062 21.938 98 49 98Z" fill="#F5E769"/>
<path d="M64.3125 45.9375H47.4688V58.1875H64.3125V45.9375Z" fill="#4F5D73"/>
<path opacity="0.2" d="M52.0625 76.5625C52.0625 78.2545 50.692 79.625 49 79.625H24.5C22.808 79.625 21.4375 78.2545 21.4375 76.5625V39.8125C21.4375 38.1205 22.808 36.75 24.5 36.75H49C50.692 36.75 52.0625 38.1205 52.0625 39.8125V76.5625Z" fill="#231F20"/>
<path opacity="0.2" d="M84.2188 70.4375C84.2188 72.1295 82.8483 73.5 81.1562 73.5H59.7188C58.0267 73.5 56.6562 72.1295 56.6562 70.4375V39.8125C56.6562 38.1205 58.0267 36.75 59.7188 36.75H81.1562C82.8483 36.75 84.2188 38.1205 84.2188 39.8125V70.4375Z" fill="#231F20"/>
<path opacity="0.2" d="M64.3125 45.9375H47.4688V61.25H64.3125V45.9375Z" fill="#231F20"/>
<path d="M52.0625 73.5C52.0625 75.192 50.692 76.5625 49 76.5625H24.5C22.808 76.5625 21.4375 75.192 21.4375 73.5V36.75C21.4375 35.058 22.808 33.6875 24.5 33.6875H49C50.692 33.6875 52.0625 35.058 52.0625 36.75V73.5Z" fill="#4F5D73"/>
<path d="M84.2188 67.375C84.2188 69.067 82.8483 70.4375 81.1562 70.4375H59.7188C58.0267 70.4375 56.6562 69.067 56.6562 67.375V36.75C56.6562 35.058 58.0267 33.6875 59.7188 33.6875H81.1562C82.8483 33.6875 84.2188 35.058 84.2188 36.75V67.375Z" fill="#4F5D73"/>
<path d="M36.75 22.9688C29.1504 22.9688 22.9688 29.1504 22.9688 36.75C22.9688 44.3496 29.1504 50.5312 36.75 50.5312C44.3496 50.5312 50.5312 44.3496 50.5312 36.75C50.5312 29.1504 44.3496 22.9688 36.75 22.9688Z" fill="#4F5D73"/>
<path opacity="0.2" d="M28.3281 68.9062C30.4423 68.9062 32.1562 67.1923 32.1562 65.0781C32.1562 62.9639 30.4423 61.25 28.3281 61.25C26.2139 61.25 24.5 62.9639 24.5 65.0781C24.5 67.1923 26.2139 68.9062 28.3281 68.9062Z" fill="#231F20"/>
<path d="M28.3281 65.8438C30.4423 65.8438 32.1562 64.1298 32.1562 62.0156C32.1562 59.9014 30.4423 58.1875 28.3281 58.1875C26.2139 58.1875 24.5 59.9014 24.5 62.0156C24.5 64.1298 26.2139 65.8438 28.3281 65.8438Z" fill="#C75C5C"/>
<path opacity="0.2" d="M36.75 21.4375C26.6024 21.4375 18.375 29.6649 18.375 39.8125C18.375 49.9601 26.6024 58.1875 36.75 58.1875C46.8976 58.1875 55.125 49.9601 55.125 39.8125C55.125 29.6649 46.8976 21.4375 36.75 21.4375ZM36.75 53.5938C29.1504 53.5938 22.9688 47.4121 22.9688 39.8125C22.9688 32.2129 29.1504 26.0312 36.75 26.0312C44.3496 26.0312 50.5312 32.2129 50.5312 39.8125C50.5312 47.4121 44.3496 53.5938 36.75 53.5938Z" fill="#231F20"/>
<path d="M36.75 18.375C26.6024 18.375 18.375 26.6024 18.375 36.75C18.375 46.8976 26.6024 55.125 36.75 55.125C46.8976 55.125 55.125 46.8976 55.125 36.75C55.125 26.6024 46.8976 18.375 36.75 18.375ZM36.75 50.5312C29.1504 50.5312 22.9688 44.3496 22.9688 36.75C22.9688 29.1504 29.1504 22.9688 36.75 22.9688C44.3496 22.9688 50.5312 29.1504 50.5312 36.75C50.5312 44.3496 44.3496 50.5312 36.75 50.5312Z" fill="#E0E0D1"/>
<rect x="93" y="12" width="282" height="65" rx="32.5" fill="#F5E769"/>
<path d="M109.735 56.768L111.991 54.08C114.007 55.968 115.895 57.312 117.655 58.112C119.447 58.912 121.431 59.312 123.607 59.312C126.199 59.312 128.343 58.672 130.039 57.392C131.735 56.08 132.583 54.464 132.583 52.544C132.583 50.88 132.007 49.6 130.855 48.704C129.735 47.808 127.815 47.12 125.095 46.64L119.671 45.728C116.599 45.184 114.343 44.256 112.903 42.944C111.495 41.6 110.791 39.808 110.791 37.568C110.791 34.752 111.863 32.448 114.007 30.656C116.151 28.864 118.919 27.968 122.311 27.968C124.807 27.968 127.127 28.32 129.271 29.024C131.415 29.696 133.527 30.768 135.607 32.24L133.687 35.12C131.959 33.84 130.119 32.848 128.167 32.144C126.247 31.44 124.311 31.088 122.359 31.088C120.023 31.088 118.103 31.68 116.599 32.864C115.095 34.016 114.343 35.456 114.343 37.184C114.343 38.656 114.839 39.808 115.831 40.64C116.823 41.472 118.439 42.064 120.679 42.416L126.055 43.328C129.607 43.968 132.199 45.008 133.831 46.448C135.463 47.888 136.279 49.856 136.279 52.352C136.279 53.792 135.959 55.136 135.319 56.384C134.679 57.632 133.783 58.704 132.631 59.6C131.511 60.496 130.167 61.2 128.599 61.712C127.031 62.224 125.335 62.48 123.511 62.48C120.887 62.48 118.439 62.016 116.167 61.088C113.927 60.128 111.783 58.688 109.735 56.768ZM142.569 28.4H146.409L166.089 56.24L165.993 28.4H169.497V62H166.137L145.977 33.536L146.073 62H142.569V28.4ZM174.213 62L187.509 28.4H191.925L205.029 62H201.045L197.061 51.44H182.085L178.101 62H174.213ZM183.237 48.512H195.957L189.573 31.712L183.237 48.512ZM209.741 62V28.4H223.613C226.845 28.4 229.437 29.312 231.389 31.136C233.341 32.96 234.317 35.36 234.317 38.336C234.317 41.312 233.341 43.712 231.389 45.536C229.437 47.36 226.845 48.272 223.613 48.272H213.437V62H209.741ZM223.181 31.664H213.437V45.104H223.181C225.485 45.104 227.293 44.496 228.605 43.28C229.949 42.064 230.621 40.416 230.621 38.336C230.621 36.288 229.949 34.672 228.605 33.488C227.293 32.272 225.485 31.664 223.181 31.664ZM238.688 56.768L240.944 54.08C242.96 55.968 244.848 57.312 246.608 58.112C248.4 58.912 250.384 59.312 252.56 59.312C255.152 59.312 257.296 58.672 258.992 57.392C260.688 56.08 261.536 54.464 261.536 52.544C261.536 50.88 260.96 49.6 259.808 48.704C258.688 47.808 256.768 47.12 254.048 46.64L248.624 45.728C245.552 45.184 243.296 44.256 241.856 42.944C240.448 41.6 239.744 39.808 239.744 37.568C239.744 34.752 240.816 32.448 242.96 30.656C245.104 28.864 247.872 27.968 251.264 27.968C253.76 27.968 256.08 28.32 258.224 29.024C260.368 29.696 262.48 30.768 264.56 32.24L262.64 35.12C260.912 33.84 259.072 32.848 257.12 32.144C255.2 31.44 253.264 31.088 251.312 31.088C248.976 31.088 247.056 31.68 245.552 32.864C244.048 34.016 243.296 35.456 243.296 37.184C243.296 38.656 243.792 39.808 244.784 40.64C245.776 41.472 247.392 42.064 249.632 42.416L255.008 43.328C258.56 43.968 261.152 45.008 262.784 46.448C264.416 47.888 265.232 49.856 265.232 52.352C265.232 53.792 264.912 55.136 264.272 56.384C263.632 57.632 262.736 58.704 261.584 59.6C260.464 60.496 259.12 61.2 257.552 61.712C255.984 62.224 254.288 62.48 252.464 62.48C249.84 62.48 247.392 62.016 245.12 61.088C242.88 60.128 240.736 58.688 238.688 56.768ZM271.522 62V28.4H294.466V31.616H275.218V43.424H288.562V46.64H275.218V58.784H294.658V62H271.522ZM301.241 62V28.4H324.185V31.616H304.937V43.424H318.281V46.64H304.937V58.784H324.377V62H301.241ZM330.96 62V28.4H342.096C344.56 28.4 346.816 28.832 348.864 29.696C350.944 30.56 352.72 31.744 354.192 33.248C355.664 34.72 356.816 36.496 357.648 38.576C358.48 40.624 358.896 42.832 358.896 45.2C358.896 47.568 358.48 49.792 357.648 51.872C356.848 53.92 355.712 55.696 354.24 57.2C352.767 58.672 350.992 59.84 348.912 60.704C346.832 61.568 344.56 62 342.096 62H330.96ZM342.336 31.712H334.656V58.688H342.336C344.128 58.688 345.808 58.352 347.376 57.68C348.944 56.976 350.304 56.032 351.456 54.848C352.608 53.632 353.504 52.208 354.144 50.576C354.816 48.912 355.152 47.12 355.152 45.2C355.152 43.28 354.816 41.504 354.144 39.872C353.504 38.208 352.608 36.784 351.456 35.6C350.304 34.384 348.944 33.44 347.376 32.768C345.808 32.064 344.128 31.712 342.336 31.712Z" fill="black"/>
</svg>
